<?xml version="1.0" encoding="utf-8"?>
<!-- Generated by IcoMoon.io -->
<!DOCTYPE svg PUBLIC "-//W3C//DTD SVG 1.1//EN" "http://www.w3.org/Graphics/SVG/1.1/DTD/svg11.dtd">
<svg version="1.1" xmlns="http://www.w3.org/2000/svg" xmlns:xlink="http://www.w3.org/1999/xlink" width="32" height="32" viewBox="0 0 32 32">
<g>
</g>
	<path d="M16 0c-8.837 0-16 7.165-16 16 0 8.838 7.163 16 16 16 8.838 0 16-7.162 16-16 0-8.835-7.162-16-16-16zM16 28.8c-7.069 0-12.8-5.732-12.8-12.8 0-7.069 5.731-12.8 12.8-12.8 7.068 0 12.8 5.731 12.8 12.8 0 7.068-5.732 12.8-12.8 12.8z" fill="#000000" />
	<path d="M23.414 16l2.186 2.217-12.027 12.192-2.187-2.219 12.028-12.19z" fill="#000000" />
	<path d="M18.428 1.594l2.185 2.216-12.027 12.19-2.186-2.216 12.028-12.19z" fill="#000000" />
	<path d="M16 12.413l2.263-2.264 12.443 12.445-2.263 2.264-12.443-12.445z" fill="#000000" />
	<path d="M1.664 9.956l2.263-2.263 12.444 12.445-2.263 2.262-12.444-12.444z" fill="#000000" />
	<path d="M11.2 12.8v-3.2h17.6v3.2h-17.6z" fill="#000000" />
	<path d="M3.2 22.4v-3.2h17.6v3.2h-17.6z" fill="#000000" />
</svg>
