<?xml version="1.0" encoding="utf-8"?>
<!-- Generated by IcoMoon.io -->
<!DOCTYPE svg PUBLIC "-//W3C//DTD SVG 1.1//EN" "http://www.w3.org/Graphics/SVG/1.1/DTD/svg11.dtd">
<svg version="1.1" xmlns="http://www.w3.org/2000/svg" xmlns:xlink="http://www.w3.org/1999/xlink" width="32" height="32" viewBox="0 0 32 32">
<g>
</g>
	<path d="M29.125 12.5h-9.625v-9.625c0-0.483-0.393-0.875-0.875-0.875h-5.25c-0.483 0-0.875 0.392-0.875 0.875v9.625h-9.625c-0.483 0-0.875 0.392-0.875 0.875v5.25c0 0.482 0.392 0.875 0.875 0.875h9.625v9.625c0 0.482 0.392 0.875 0.875 0.875h5.25c0.482 0 0.875-0.393 0.875-0.875v-9.625h9.625c0.482 0 0.875-0.393 0.875-0.875v-5.25c0-0.483-0.393-0.875-0.875-0.875z" fill="#000000" />
</svg>
