<?xml version="1.0" encoding="utf-8"?>
<!-- Generated by IcoMoon.io -->
<!DOCTYPE svg PUBLIC "-//W3C//DTD SVG 1.1//EN" "http://www.w3.org/Graphics/SVG/1.1/DTD/svg11.dtd">
<svg version="1.1" xmlns="http://www.w3.org/2000/svg" xmlns:xlink="http://www.w3.org/1999/xlink" width="32" height="32" viewBox="0 0 32 32">
<g>
</g>
	<path d="M30.882 26.052l-0.002 0.003-8.289-8.393c0.9-1.669 1.423-3.576 1.435-5.608 0.040-6.627-5.299-12.033-11.926-12.072-6.629-0.041-12.035 5.298-12.076 11.926-0.040 6.626 5.3 12.033 11.927 12.072 2.026 0.014 3.936-0.481 5.617-1.36l8.291 8.396 0.007-0.008c0.636 0.656 1.521 1.067 2.508 1.073 1.95 0.012 3.54-1.56 3.552-3.507 0.006-0.985-0.397-1.877-1.044-2.522zM2.024 11.918c0.023-3.75 2.111-7 5.176-8.693l0.011 17.522c-3.11-1.712-5.21-5.029-5.187-8.829zM11.962 21.98c-0.956-0.006-1.876-0.154-2.75-0.41l-0.013-19.181c0.915-0.27 1.883-0.415 2.886-0.409 5.522 0.035 9.974 4.54 9.938 10.062-0.031 5.522-4.539 9.972-10.061 9.938zM28.385 30.318c-0.498-0.004-0.943-0.217-1.265-0.551l-0.009 0.010-6.221-6.293c0.955-0.698 1.785-1.479 2.5-2.422l6.232 6.232c0.332 0.323 0.538 0.77 0.535 1.268-0.007 0.977-0.798 1.763-1.772 1.756z" fill="#000000" />
</svg>
