<?xml version="1.0" encoding="utf-8"?>
<!-- Generated by IcoMoon.io -->
<!DOCTYPE svg PUBLIC "-//W3C//DTD SVG 1.1//EN" "http://www.w3.org/Graphics/SVG/1.1/DTD/svg11.dtd">
<svg version="1.1" xmlns="http://www.w3.org/2000/svg" xmlns:xlink="http://www.w3.org/1999/xlink" width="32" height="32" viewBox="0 0 32 32">
<g>
</g>
	<path d="M11.8 9v-2.8h18.2v2.8h-18.2z" fill="#000000" />
	<path d="M4.8 21.6c1.546 0 2.8 1.256 2.8 2.801s-1.254 2.8-2.8 2.8c-1.545 0-2.8-1.255-2.8-2.8s1.254-2.801 2.8-2.801z" fill="#000000" />
	<path d="M4.8 13.2c1.546 0 2.8 1.254 2.8 2.8 0 1.545-1.254 2.8-2.8 2.8-1.546 0-2.8-1.255-2.8-2.8 0-1.545 1.254-2.8 2.8-2.8z" fill="#000000" />
	<path d="M4.8 4.8c1.546 0 2.8 1.254 2.8 2.8 0 1.547-1.254 2.8-2.8 2.8-1.546 0-2.8-1.253-2.8-2.8 0-1.546 1.254-2.8 2.8-2.8z" fill="#000000" />
	<path d="M11.8 25.8v-2.8h18.2v2.8h-18.2z" fill="#000000" />
	<path d="M11.8 17.4v-2.8h18.2v2.8h-18.2z" fill="#000000" />
</svg>
