<?xml version="1.0" encoding="utf-8"?>
<!-- Generated by IcoMoon.io -->
<!DOCTYPE svg PUBLIC "-//W3C//DTD SVG 1.1//EN" "http://www.w3.org/Graphics/SVG/1.1/DTD/svg11.dtd">
<svg version="1.1" xmlns="http://www.w3.org/2000/svg" xmlns:xlink="http://www.w3.org/1999/xlink" width="32" height="32" viewBox="0 0 32 32">
<g>
</g>
	<path d="M21 4c-2.065 0-3.838 1.253-4.6 3.040 0.704 0.057 1.361 0.256 1.953 0.574 0.502-0.955 1.493-1.614 2.647-1.614 1.656 0 3 1.343 3 3 0 1.657-1.344 3-3 3 0 0.696-0.144 1.357-0.4 1.96 0.134 0.011 0.263 0.040 0.4 0.040 2.762 0 5-2.238 5-5s-2.238-5-5-5z" fill="#000000" />
	<path d="M8 9c0-1.657 1.343-3 3-3 1.154 0 2.144 0.659 2.646 1.614 0.592-0.318 1.25-0.517 1.954-0.574-0.763-1.787-2.535-3.040-4.6-3.040-2.761 0-5 2.238-5 5s2.239 5 5 5c0.137 0 0.266-0.029 0.4-0.040-0.256-0.603-0.4-1.264-0.4-1.96-1.657 0-3-1.343-3-3z" fill="#000000" />
	<path d="M18.354 7.614c-0.592-0.318-1.25-0.517-1.954-0.574-0.134-0.011-0.263-0.040-0.4-0.040s-0.266 0.029-0.4 0.040c-0.704 0.057-1.362 0.256-1.954 0.574-1.568 0.844-2.646 2.481-2.646 4.386 0 0.696 0.144 1.357 0.4 1.96 0.763 1.787 2.535 3.040 4.6 3.040s3.838-1.253 4.6-3.040c0.256-0.603 0.4-1.264 0.4-1.96 0-1.905-1.078-3.542-2.646-4.386zM18.646 13.386c-0.501 0.955-1.492 1.614-2.646 1.614s-2.144-0.659-2.646-1.614c-0.219-0.416-0.354-0.883-0.354-1.386 0-0.326 0.065-0.633 0.161-0.927 0.142-0.433 0.37-0.825 0.678-1.146 0.546-0.569 1.31-0.927 2.161-0.927s1.615 0.358 2.161 0.927c0.308 0.321 0.536 0.713 0.678 1.146 0.097 0.294 0.161 0.601 0.161 0.927 0 0.503-0.135 0.97-0.354 1.386z" fill="#000000" />
	<path d="M28 20.45c0-4.114-3.134-7.45-7-7.45-2.311 0-3.031 2.56-5.628 3.034 0.207-0.019 0.416-0.034 0.628-0.034 0.601 0 1.18 0.089 1.736 0.24 0.877-0.762 2.010-1.24 3.264-1.24 2.762 0 5 2.238 5 5 0 1.096-1.387 1.784-3.125 2.065 0.079 0.45 0.125 0.912 0.125 1.385 0 0.146-0.014 0.288-0.040 0.425 2.737-0.37 5.040-1.517 5.040-3.425z" fill="#000000" />
	<path d="M9.122 22.066c-1.738-0.279-3.122-0.967-3.122-2.066 0-2.762 2.239-5 5-5 1.255 0 2.388 0.479 3.266 1.242 0.359-0.098 0.727-0.172 1.105-0.208 0.208-0.019 0.417-0.034 0.629-0.034 0.216 0 0.426 0.024 0.637 0.045-2.993-0.267-3.321-3.045-5.637-3.045-3.866 0-7 3.335-7 7.45 0 1.938 2.304 3.079 5.042 3.436-0.027-0.141-0.042-0.286-0.042-0.436 0-0.473 0.043-0.935 0.122-1.384z" fill="#000000" />
	<path d="M22.875 22.065c-0.504-2.847-2.526-5.114-5.139-5.825-0.356-0.097-0.725-0.156-1.1-0.195-0.21-0.021-0.42-0.045-0.636-0.045-0.212 0-0.421 0.014-0.628 0.034-0.379 0.036-0.747 0.11-1.105 0.208-2.614 0.71-4.641 2.978-5.144 5.824-0.080 0.449-0.123 0.911-0.123 1.384 0 0.149 0.015 0.295 0.042 0.436 0.798 4.196 13.128 4.132 13.918-0.011 0.026-0.137 0.040-0.279 0.040-0.425 0-0.473-0.046-0.935-0.125-1.385zM11 23c0-2.762 2.239-5 5-5 2.762 0 5 2.238 5 5 0 2.943-10 2.954-10 0z" fill="#000000" />
</svg>
