<?xml version="1.0" encoding="utf-8"?>
<!-- Generated by IcoMoon.io -->
<!DOCTYPE svg PUBLIC "-//W3C//DTD SVG 1.1//EN" "http://www.w3.org/Graphics/SVG/1.1/DTD/svg11.dtd">
<svg version="1.1" xmlns="http://www.w3.org/2000/svg" xmlns:xlink="http://www.w3.org/1999/xlink" width="32" height="32" viewBox="0 0 32 32">
<g>
</g>
	<path d="M14 9h10v2h-10v-2zM14 15h10v2h-10v-2zM14 21h10v2h-10v-2zM8 10c0-1.104 0.896-2 2-2s2 0.896 2 2-0.896 2-2 2-2-0.896-2-2zM8 16c0-1.104 0.896-2 2-2s2 0.896 2 2-0.896 2-2 2-2-0.896-2-2zM8 22c0-1.104 0.896-2 2-2s2 0.896 2 2-0.896 2-2 2-2-0.896-2-2z" fill="#000000" />
</svg>
