<?xml version="1.0" encoding="utf-8"?>
<!-- Generator: Adobe Illustrator 14.0.0, SVG Export Plug-In . SVG Version: 6.00 Build 43363)  -->
<!DOCTYPE svg PUBLIC "-//W3C//DTD SVG 1.1//EN" "http://www.w3.org/Graphics/SVG/1.1/DTD/svg11.dtd">
<svg version="1.1" id="Layer_1" xmlns="http://www.w3.org/2000/svg" xmlns:xlink="http://www.w3.org/1999/xlink" x="0px" y="0px"
	 width="32px" height="32px" viewBox="0 0 32 32" enable-background="new 0 0 32 32" xml:space="preserve">
<path fill-rule="evenodd" clip-rule="evenodd" fill="#231F20" d="M17,11v13.104l0.978,0.478L24,22V8L17,11z M22,20.511L19,22v-9.438
	L22,11V20.511z"/>
<path fill-rule="evenodd" clip-rule="evenodd" fill="#231F20" d="M13.042,8.447L12,8.886V22l6.041,2.59L19,24.169V11L13.042,8.447z
	 M17,22l-3-1.527V11l3,1.524V22z"/>
<path fill-rule="evenodd" clip-rule="evenodd" fill="#231F20" d="M13.028,8.417L7,11v14l7-3V8.806L13.028,8.417z M12,20.404L9,22
	v-9.527L12,11V20.404z"/>
</svg>
