<?xml version="1.0" encoding="utf-8"?>
<!-- Generated by IcoMoon.io -->
<!DOCTYPE svg PUBLIC "-//W3C//DTD SVG 1.1//EN" "http://www.w3.org/Graphics/SVG/1.1/DTD/svg11.dtd">
<svg version="1.1" xmlns="http://www.w3.org/2000/svg" xmlns:xlink="http://www.w3.org/1999/xlink" width="32" height="32" viewBox="0 0 32 32">
<g>
</g>
	<path d="M23.854 20.854v0l-4.854-4.854 4.854-4.854c0.053-0.052 0.091-0.114 0.115-0.178 0.066-0.178 0.028-0.386-0.115-0.529l-2.293-2.293c-0.143-0.143-0.351-0.18-0.528-0.115-0.064 0.024-0.126 0.062-0.179 0.114v0l-4.854 4.855-4.854-4.854c-0.052-0.052-0.114-0.090-0.178-0.114-0.178-0.066-0.386-0.028-0.529 0.115l-2.293 2.293c-0.143 0.143-0.18 0.351-0.115 0.529 0.024 0.064 0.062 0.126 0.115 0.178v0l4.854 4.853-4.854 4.854c-0.052 0.053-0.090 0.114-0.115 0.179-0.066 0.178-0.028 0.386 0.115 0.528l2.293 2.293c0.143 0.144 0.351 0.181 0.529 0.115 0.064-0.024 0.126-0.062 0.178-0.115v0l4.854-4.854 4.854 4.854c0.053 0.053 0.114 0.091 0.179 0.115 0.179 0.066 0.386 0.028 0.528-0.115l2.293-2.293c0.144-0.143 0.182-0.351 0.115-0.528-0.025-0.065-0.063-0.127-0.115-0.179z" fill="#000000" />
</svg>
