<?xml version="1.0" encoding="utf-8"?>
<!-- Generated by IcoMoon.io -->
<!DOCTYPE svg PUBLIC "-//W3C//DTD SVG 1.1//EN" "http://www.w3.org/Graphics/SVG/1.1/DTD/svg11.dtd">
<svg version="1.1" xmlns="http://www.w3.org/2000/svg" xmlns:xlink="http://www.w3.org/1999/xlink" width="32" height="32" viewBox="0 0 32 32">
<g>
</g>
	<path d="M16 6c-5.523 0-10 4.478-10 10 0 5.523 4.477 10 10 10 5.523 0 10-4.477 10-10 0-5.522-4.477-10-10-10zM16 24c-4.418 0-8-3.582-8-8s3.582-8 8-8c4.418 0 8 3.582 8 8s-3.582 8-8 8z" fill="#000000" />
	<path d="M20.634 16l1.366 1.386-7.517 7.62-1.367-1.387 7.518-7.619z" fill="#000000" />
	<path d="M17.517 6.996l1.366 1.385-7.517 7.619-1.366-1.385 7.517-7.619z" fill="#000000" />
	<path d="M16 13.758l1.414-1.415 7.778 7.778-1.414 1.415-7.778-7.778z" fill="#000000" />
	<path d="M7.040 12.222l1.414-1.414 7.778 7.778-1.414 1.414-7.778-7.778z" fill="#000000" />
	<path d="M13 14v-2h11v2h-11z" fill="#000000" />
	<path d="M8 20v-2h11v2h-11z" fill="#000000" />
</svg>
