<?xml version="1.0" encoding="utf-8"?>
<!-- Generated by IcoMoon.io -->
<!DOCTYPE svg PUBLIC "-//W3C//DTD SVG 1.1//EN" "http://www.w3.org/Graphics/SVG/1.1/DTD/svg11.dtd">
<svg version="1.1" xmlns="http://www.w3.org/2000/svg" xmlns:xlink="http://www.w3.org/1999/xlink" width="32" height="32" viewBox="0 0 32 32">
<g>
</g>
	<path d="M16 6c-4.418 0-8 3.582-8 8 0 5.938 8 12 8 12s8-6.045 8-12c0-4.418-3.582-8-8-8zM16 23.488c0 0-6-4.469-6-9.488 0-3.313 2.687-6 6-6 3.314 0 6 2.686 6 6 0 5.031-6 9.488-6 9.488z" fill="#000000" />
	<path d="M16 12c1.104 0 2 0.896 2 2 0 1.105-0.896 2-2 2s-2-0.895-2-2c0-1.104 0.896-2 2-2z" fill="#000000" />
</svg>
