<?xml version="1.0" encoding="utf-8"?>
<!-- Generator: Adobe Illustrator 14.0.0, SVG Export Plug-In . SVG Version: 6.00 Build 43363)  -->
<!DOCTYPE svg PUBLIC "-//W3C//DTD SVG 1.1//EN" "http://www.w3.org/Graphics/SVG/1.1/DTD/svg11.dtd">
<svg version="1.1" id="Layer_1" xmlns="http://www.w3.org/2000/svg" xmlns:xlink="http://www.w3.org/1999/xlink" x="0px" y="0px"
	 width="32px" height="32px" viewBox="0 0 32 32" enable-background="new 0 0 32 32" xml:space="preserve">
<path fill-rule="evenodd" clip-rule="evenodd" fill="#231F20" d="M16,6c-4.418,0-8,3.582-8,8c0,5.938,8,12,8,12s8-6.045,8-12
	C24,9.582,20.418,6,16,6z M16,23.488c0,0-6-4.469-6-9.488c0-3.313,2.687-6,6-6c3.314,0,6,2.686,6,6C22,19.031,16,23.488,16,23.488z"
	/>
<path fill-rule="evenodd" clip-rule="evenodd" fill="#231F20" d="M16,12c1.104,0,2,0.896,2,2c0,1.105-0.896,2-2,2s-2-0.895-2-2
	C14,12.896,14.896,12,16,12z"/>
</svg>
