<?xml version="1.0" encoding="utf-8"?>
<!-- Generated by IcoMoon.io -->
<!DOCTYPE svg PUBLIC "-//W3C//DTD SVG 1.1//EN" "http://www.w3.org/Graphics/SVG/1.1/DTD/svg11.dtd">
<svg version="1.1" xmlns="http://www.w3.org/2000/svg" xmlns:xlink="http://www.w3.org/1999/xlink" width="32" height="32" viewBox="0 0 32 32">
<g>
</g>
	<path d="M23.504 21.115l-3.79-3.223c-0.392-0.354-0.812-0.517-1.149-0.5 0.894-1.046 1.435-2.407 1.435-3.892 0-3.313-2.688-6-6-6-3.313 0-6 2.687-6 6 0 3.312 2.687 6 6 6 1.486 0 2.846-0.541 3.893-1.436-0.016 0.338 0.146 0.758 0.5 1.148l3.224 3.79c0.553 0.613 1.454 0.665 2.004 0.115s0.496-1.449-0.117-2.002zM14 17.5c-2.209 0-4-1.791-4-4s1.791-4 4-4 4 1.791 4 4-1.791 4-4 4z" fill="#000000" />
</svg>
