<?xml version="1.0" encoding="utf-8"?>
<!-- Generated by IcoMoon.io -->
<!DOCTYPE svg PUBLIC "-//W3C//DTD SVG 1.1//EN" "http://www.w3.org/Graphics/SVG/1.1/DTD/svg11.dtd">
<svg version="1.1" xmlns="http://www.w3.org/2000/svg" xmlns:xlink="http://www.w3.org/1999/xlink" width="32" height="32" viewBox="0 0 32 32">
<g>
</g>
	<path d="M15 10.845h2v10.155h-2v-10.155z" fill="#000000" />
	<path d="M8 14h16v2h-16v-2z" fill="#000000" />
	<path d="M8 14h2v4.063h-2v-4.063z" fill="#000000" />
	<path d="M22 14h2v3.867h-2v-3.867z" fill="#000000" />
	<path d="M16 6c-1.657 0-3 1.343-3 3s1.343 3 3 3c1.656 0 3-1.343 3-3 0-1.657-1.344-3-3-3zM16 10c-0.552 0-1-0.447-1-1 0-0.552 0.448-1 1-1s1 0.448 1 1c0 0.553-0.448 1-1 1z" fill="#000000" />
	<path d="M23 17c-1.656 0-3 1.344-3 3 0 1.657 1.344 3 3 3s3-1.343 3-3c0-1.656-1.344-3-3-3zM23 21c-0.553 0-1-0.447-1-1s0.447-1 1-1 1 0.447 1 1-0.447 1-1 1z" fill="#000000" />
	<path d="M16 20c-1.657 0-3 1.344-3 3 0 1.657 1.343 3 3 3 1.656 0 3-1.343 3-3 0-1.656-1.344-3-3-3zM16 24c-0.552 0-1-0.447-1-1s0.448-1 1-1 1 0.447 1 1-0.448 1-1 1z" fill="#000000" />
	<path d="M9 17c-1.657 0-3 1.344-3 3 0 1.657 1.343 3 3 3s3-1.343 3-3c0-1.656-1.343-3-3-3zM9 21c-0.552 0-1-0.447-1-1s0.448-1 1-1 1 0.447 1 1-0.448 1-1 1z" fill="#000000" />
</svg>
