<?xml version="1.0" encoding="utf-8"?>
<!-- Generator: Adobe Illustrator 14.0.0, SVG Export Plug-In . SVG Version: 6.00 Build 43363)  -->
<!DOCTYPE svg PUBLIC "-//W3C//DTD SVG 1.1//EN" "http://www.w3.org/Graphics/SVG/1.1/DTD/svg11.dtd">
<svg version="1.1" id="Layer_1" xmlns="http://www.w3.org/2000/svg" xmlns:xlink="http://www.w3.org/1999/xlink" x="0px" y="0px"
	 width="32px" height="32px" viewBox="0 0 32 32" enable-background="new 0 0 32 32" xml:space="preserve">
<path fill-rule="evenodd" clip-rule="evenodd" fill="#231F20" d="M13,11V9h13v2H13"/>
<path fill-rule="evenodd" clip-rule="evenodd" fill="#231F20" d="M8,20c1.104,0,2,0.896,2,2s-0.896,2-2,2s-2-0.896-2-2
	S6.896,20,8,20z"/>
<path fill-rule="evenodd" clip-rule="evenodd" fill="#231F20" d="M8,14c1.104,0,2,0.896,2,2s-0.896,2-2,2s-2-0.896-2-2
	S6.896,14,8,14z"/>
<path fill-rule="evenodd" clip-rule="evenodd" fill="#231F20" d="M8,8c1.104,0,2,0.896,2,2c0,1.105-0.896,2-2,2s-2-0.895-2-2
	C6,8.896,6.896,8,8,8z"/>
<path fill-rule="evenodd" clip-rule="evenodd" fill="#231F20" d="M13,23v-2h13v2H13"/>
<path fill-rule="evenodd" clip-rule="evenodd" fill="#231F20" d="M13,17v-2h13v2H13"/>
</svg>
