<?xml version="1.0" encoding="utf-8"?>
<!-- Generated by IcoMoon.io -->
<!DOCTYPE svg PUBLIC "-//W3C//DTD SVG 1.1//EN" "http://www.w3.org/Graphics/SVG/1.1/DTD/svg11.dtd">
<svg version="1.1" xmlns="http://www.w3.org/2000/svg" xmlns:xlink="http://www.w3.org/1999/xlink" width="32" height="32" viewBox="0 0 32 32">
<g>
</g>
	<path d="M13 11v-2h13v2h-13z" fill="#000000" />
	<path d="M8 20c1.104 0 2 0.896 2 2s-0.896 2-2 2-2-0.896-2-2 0.896-2 2-2z" fill="#000000" />
	<path d="M8 14c1.104 0 2 0.896 2 2s-0.896 2-2 2-2-0.896-2-2 0.896-2 2-2z" fill="#000000" />
	<path d="M8 8c1.104 0 2 0.896 2 2 0 1.105-0.896 2-2 2s-2-0.895-2-2c0-1.104 0.896-2 2-2z" fill="#000000" />
	<path d="M13 23v-2h13v2h-13z" fill="#000000" />
	<path d="M13 17v-2h13v2h-13z" fill="#000000" />
</svg>
