<?xml version="1.0" encoding="utf-8"?>
<!-- Generated by IcoMoon.io -->
<!DOCTYPE svg PUBLIC "-//W3C//DTD SVG 1.1//EN" "http://www.w3.org/Graphics/SVG/1.1/DTD/svg11.dtd">
<svg version="1.1" xmlns="http://www.w3.org/2000/svg" xmlns:xlink="http://www.w3.org/1999/xlink" width="32" height="32" viewBox="0 0 32 32">
<g>
</g>
	<path d="M16 9c-5.523 0-10 4.046-10 7s4.477 7 10 7c5.523 0 10-3.969 10-7 0-3.031-4.477-7-10-7zM16 21c-2.761 0-8-1.932-8-5 0-3.068 5.239-5 8-5 2.762 0 8 2.012 8 5 0 2.988-5.238 5-8 5z" fill="#000000" />
	<path d="M16 12c-2.209 0-4 1.791-4 4s1.791 4 4 4 4-1.791 4-4-1.791-4-4-4zM16 18c-1.104 0-2-0.896-2-2s0.896-2 2-2 2 0.896 2 2-0.896 2-2 2z" fill="#000000" />
</svg>
