<?xml version="1.0" encoding="utf-8"?>
<!-- Generator: Adobe Illustrator 14.0.0, SVG Export Plug-In . SVG Version: 6.00 Build 43363)  -->
<!DOCTYPE svg PUBLIC "-//W3C//DTD SVG 1.1//EN" "http://www.w3.org/Graphics/SVG/1.1/DTD/svg11.dtd">
<svg version="1.1" id="Layer_1" xmlns="http://www.w3.org/2000/svg" xmlns:xlink="http://www.w3.org/1999/xlink" x="0px" y="0px"
	 width="32px" height="32px" viewBox="0 0 32 32" enable-background="new 0 0 32 32" xml:space="preserve">
<path fill-rule="evenodd" clip-rule="evenodd" fill="none" d="M28,18"/>
<path fill-rule="evenodd" clip-rule="evenodd" fill="#231F20" d="M16,9c-5.523,0-10,4.046-10,7c0,2.954,4.477,7,10,7
	c5.523,0,10-3.969,10-7C26,12.969,21.523,9,16,9z M16,21c-2.761,0-8-1.932-8-5c0-3.068,5.239-5,8-5c2.762,0,8,2.012,8,5
	C24,18.988,18.762,21,16,21z"/>
<path fill-rule="evenodd" clip-rule="evenodd" fill="#231F20" d="M16,12c-2.209,0-4,1.791-4,4s1.791,4,4,4s4-1.791,4-4
	S18.209,12,16,12z M16,18c-1.104,0-2-0.896-2-2s0.896-2,2-2s2,0.896,2,2S17.104,18,16,18z"/>
</svg>
